<svg width="33" height="40" viewBox="0 0 33 40" fill="none" xmlns="http://www.w3.org/2000/svg">
<path d="M32.5259 15.3553L17.6447 0.474163C17.3411 0.170569 16.9293 7.2987e-06 16.5 8.65433e-06C16.0707 7.2987e-06 15.6589 0.170569 15.3553 0.474163L0.474121 15.3553C0.170526 15.6589 -3.31033e-05 16.0707 -3.24255e-05 16.5C-3.27644e-05 16.9294 0.170526 17.3412 0.474121 17.6447C0.777715 17.9483 1.18948 18.1189 1.61883 18.1189C2.04818 18.1189 2.45994 17.9483 2.76353 17.6447L14.8817 5.52661L14.8802 38.2494C14.8802 38.679 15.0509 39.091 15.3547 39.3948C15.6584 39.6986 16.0704 39.8692 16.5 39.8692C16.9296 39.8692 17.3416 39.6986 17.6453 39.3948C17.9491 39.091 18.1198 38.679 18.1198 38.2494L18.1183 5.52661L30.2365 17.6447C30.5401 17.9483 30.9518 18.1189 31.3812 18.1189C31.8105 18.1189 32.2223 17.9483 32.5259 17.6447C32.8295 17.3412 33 16.9294 33 16.5C33 16.0707 32.8295 15.6589 32.5259 15.3553Z" fill="white"/>
<path d="M17.5682 39.3179C17.8516 39.0345 18.011 38.6497 18.011 38.249L18.0096 5.52716V5.26479L30.3129 17.5681C30.5961 17.8513 30.9806 18.0102 31.3811 18.0102C31.7816 18.0102 32.1661 17.8513 32.4493 17.5681C32.7325 17.2849 32.8914 16.9004 32.8914 16.4999C32.8914 16.0994 32.7318 15.7156 32.4486 15.4324L17.5675 0.551281C17.2843 0.268094 16.9005 0.108455 16.5 0.108456C16.0995 0.108455 15.7157 0.268094 15.4325 0.551281L0.551379 15.4324C0.268197 15.7156 0.108591 16.0994 0.108554 16.4999C0.108554 16.9004 0.267498 17.2849 0.550685 17.5681C0.833899 17.8513 1.21835 18.0102 1.61888 18.0102C2.01938 18.0102 2.40387 17.8513 2.68707 17.5681L14.9904 5.26479V5.52716L14.989 38.249C14.989 38.6497 15.1484 39.0345 15.4318 39.3179C15.7152 39.6012 16.0993 39.76 16.5 39.76C16.9007 39.76 17.2848 39.6012 17.5682 39.3179Z" stroke="#58BD7D" stroke-opacity="0.28" stroke-width="0.216236"/>
</svg>