<svg width="20" height="21" viewBox="0 0 20 21" fill="none" xmlns="http://www.w3.org/2000/svg">
<path d="M15.9946 9.29207V8.76338C15.9946 8.68427 15.9946 8.64471 15.9942 8.61125C15.9579 6.08281 13.917 4.04188 11.3886 4.00567C11.3551 4.00519 11.3156 4.00519 11.2365 4.00519H10.7078M19.299 9.95293V9.02772C19.299 8.23833 19.299 7.84363 19.2693 7.51092C18.9467 3.90834 16.0916 1.05323 12.489 0.730681C12.1563 0.700893 11.7616 0.700892 10.9722 0.700893L10.047 0.700893M7.03551 7.45185C6.61191 8.42363 6.8263 9.55565 7.57589 10.3052L9.81594 12.5453C10.5655 13.2949 11.6976 13.5093 12.6693 13.0857C13.6411 12.6621 14.7731 12.8765 15.5227 13.6261L16.8856 14.9889C16.9516 15.0549 16.9846 15.0879 17.0113 15.117C17.6684 15.8321 17.6684 16.9313 17.0113 17.6464C16.9846 17.6755 16.9516 17.7085 16.8856 17.7745L16.0572 18.6029C15.3826 19.2775 14.4101 19.5607 13.4788 19.3537C7.1333 17.9436 2.17757 12.9879 0.767451 6.64236C0.560498 5.71107 0.843683 4.73859 1.51827 4.064L2.34664 3.23563C2.41267 3.16961 2.44568 3.13659 2.47476 3.10987C3.18988 2.45277 4.28907 2.45277 5.00418 3.10987C5.03326 3.13659 5.06627 3.16961 5.1323 3.23563L6.49512 4.59846C7.24472 5.34805 7.4591 6.48007 7.03551 7.45185Z" stroke="#58BD7D" stroke-width="1.39757" stroke-linecap="round"/>
</svg>