<svg width="48" height="48" viewBox="0 0 48 48" fill="none" xmlns="http://www.w3.org/2000/svg">
<path d="M40.5 0H7.5C3.35787 0 0 3.35787 0 7.5V40.5C0 44.6422 3.35787 48 7.5 48H40.5C44.6422 48 48 44.6422 48 40.5V7.5C48 3.35787 44.6422 0 40.5 0Z" fill="white"/>
<path d="M24.0001 13.7999C27.3001 13.7999 27.7501 13.7999 29.1001 13.7999C30.3001 13.7999 30.9001 14.0999 31.3501 14.2499C31.9501 14.5499 32.4001 14.6999 32.8501 15.1499C33.3001 15.5999 33.6001 16.0499 33.7501 16.6499C33.9001 17.0999 34.0501 17.6999 34.2001 18.8999C34.2001 20.2499 34.2001 20.5499 34.2001 23.9999C34.2001 27.4499 34.2001 27.7499 34.2001 29.0999C34.2001 30.2999 33.9001 30.8999 33.7501 31.3499C33.4501 31.9499 33.3001 32.3999 32.8501 32.8499C32.4001 33.2999 31.9501 33.5999 31.3501 33.7499C30.9001 33.8999 30.3001 34.0499 29.1001 34.1999C27.7501 34.1999 27.4501 34.1999 24.0001 34.1999C20.5501 34.1999 20.2501 34.1999 18.9001 34.1999C17.7001 34.1999 17.1001 33.8999 16.6501 33.7499C16.0501 33.4499 15.6001 33.2999 15.1501 32.8499C14.7001 32.3999 14.4001 31.9499 14.2501 31.3499C14.1001 30.8999 13.9501 30.2999 13.8001 29.0999C13.8001 27.7499 13.8001 27.4499 13.8001 23.9999C13.8001 20.5499 13.8001 20.2499 13.8001 18.8999C13.8001 17.6999 14.1001 17.0999 14.2501 16.6499C14.5501 16.0499 14.7001 15.5999 15.1501 15.1499C15.6001 14.6999 16.0501 14.3999 16.6501 14.2499C17.1001 14.0999 17.7001 13.9499 18.9001 13.7999C20.2501 13.7999 20.7001 13.7999 24.0001 13.7999ZM24.0001 11.5499C20.5501 11.5499 20.2501 11.5499 18.9001 11.5499C17.5501 11.5499 16.6501 11.8499 15.9001 12.1499C15.1501 12.4499 14.4001 12.8999 13.6501 13.6499C12.9001 14.3999 12.6001 14.9999 12.1501 15.8999C11.8501 16.6499 11.7 17.5499 11.55 18.8999C11.55 20.2499 11.55 20.6999 11.55 23.9999C11.55 27.4499 11.55 27.7499 11.55 29.0999C11.55 30.4499 11.8501 31.3499 12.1501 32.0999C12.4501 32.8499 12.9001 33.5999 13.6501 34.3499C14.4001 35.0999 15.0001 35.3999 15.9001 35.8499C16.6501 36.1499 17.5501 36.2999 18.9001 36.4499C20.2501 36.4499 20.7001 36.4499 24.0001 36.4499C27.3001 36.4499 27.7501 36.4499 29.1001 36.4499C30.4501 36.4499 31.3501 36.1499 32.1001 35.8499C32.8501 35.5499 33.6001 35.0999 34.3501 34.3499C35.1001 33.5999 35.4001 32.9999 35.8501 32.0999C36.1501 31.3499 36.3001 30.4499 36.4501 29.0999C36.4501 27.7499 36.4501 27.2999 36.4501 23.9999C36.4501 20.6999 36.4501 20.2499 36.4501 18.8999C36.4501 17.5499 36.1501 16.6499 35.8501 15.8999C35.5501 15.1499 35.1001 14.3999 34.3501 13.6499C33.6001 12.8999 33.0001 12.5999 32.1001 12.1499C31.3501 11.8499 30.4501 11.6999 29.1001 11.5499C27.7501 11.5499 27.4501 11.5499 24.0001 11.5499Z" fill="#58BD7D"/>
<path d="M24.0001 17.5499C20.4001 17.5499 17.5501 20.3999 17.5501 23.9999C17.5501 27.5999 20.4001 30.4499 24.0001 30.4499C27.6001 30.4499 30.4501 27.5999 30.4501 23.9999C30.4501 20.3999 27.6001 17.5499 24.0001 17.5499ZM24.0001 28.1999C21.7501 28.1999 19.8001 26.3999 19.8001 23.9999C19.8001 21.7499 21.6001 19.7999 24.0001 19.7999C26.2501 19.7999 28.2001 21.5999 28.2001 23.9999C28.2001 26.2499 26.2501 28.1999 24.0001 28.1999Z" fill="#58BD7D"/>
<path d="M30.6001 18.8999C31.4285 18.8999 32.1001 18.2283 32.1001 17.3999C32.1001 16.5714 31.4285 15.8999 30.6001 15.8999C29.7716 15.8999 29.1001 16.5714 29.1001 17.3999C29.1001 18.2283 29.7716 18.8999 30.6001 18.8999Z" fill="#58BD7D"/>
</svg>