<svg width="21" height="21" viewBox="0 0 21 21" fill="none" xmlns="http://www.w3.org/2000/svg">
<path d="M4.87488 3.75024V16.2752C4.87488 17.435 5.81508 18.3752 6.97488 18.3752H14.0249C15.1847 18.3752 16.1249 17.435 16.1249 16.2752V6.97524C16.1249 5.81545 15.1847 4.87524 14.0249 4.87524H5.99988C5.37856 4.87524 4.87488 4.37156 4.87488 3.75024ZM4.87488 3.75024C4.87488 3.12892 5.37856 2.62524 5.99988 2.62524H16.1249" stroke="#141414" stroke-opacity="0.75" stroke-width="1.575" stroke-linecap="round"/>
<path d="M7.875 8.66274C7.875 8.22782 8.22758 7.87524 8.6625 7.87524H12.3375C12.7724 7.87524 13.125 8.22782 13.125 8.66274V9.71274C13.125 10.1477 12.7724 10.5002 12.3375 10.5002H8.6625C8.22758 10.5002 7.875 10.1477 7.875 9.71274V8.66274Z" stroke="#141414" stroke-opacity="0.75" stroke-width="1.575"/>
<path d="M12.5999 16.0127H8.3999" stroke="#141414" stroke-opacity="0.75" stroke-width="1.575" stroke-linecap="round"/>
</svg>
