<svg width="18" height="22" viewBox="0 0 18 22" fill="none" xmlns="http://www.w3.org/2000/svg">
<path d="M8.79975 0.0470995C11.1215 0.0470995 13.3479 0.952825 14.9894 2.56496C16.6309 4.1771 17.5534 6.36321 17.5534 8.64276C17.5534 11.7117 16.1053 14.9697 13.3655 18.0646C12.6352 18.888 11.8526 19.6658 11.0232 20.3931L10.93 20.4755H16.0001C16.2001 20.4755 16.3917 20.5537 16.5329 20.6924C16.674 20.831 16.7537 21.0187 16.7537 21.2144C16.7537 21.4101 16.674 21.5978 16.5329 21.7364C16.3917 21.8751 16.2001 21.9532 16.0001 21.9533H1.6004C1.40033 21.9533 1.20783 21.8751 1.06661 21.7364C0.925624 21.5978 0.846839 21.41 0.84681 21.2144C0.84681 21.0188 0.925666 20.831 1.06661 20.6924C1.20783 20.5537 1.40033 20.4755 1.6004 20.4755H6.66948L6.57725 20.3931C5.74786 19.6658 4.96534 18.8881 4.23503 18.0646C1.49108 14.9696 0.0470995 11.7118 0.0470995 8.64276C0.0471266 6.36328 0.968733 4.17709 2.6101 2.56496C4.25155 0.95282 6.47804 0.0471628 8.79975 0.0470995ZM8.79975 1.52485C6.87818 1.52491 5.03474 2.27425 3.67572 3.609C2.31668 4.9438 1.55333 6.75471 1.5533 8.64276C1.5533 11.4682 2.94697 14.0565 4.54314 16.0953C6.13985 18.1347 7.94326 19.6299 8.7713 20.2695L8.79975 20.291L8.82821 20.2695C9.65623 19.6299 11.4597 18.1346 13.0564 16.0953C14.6526 14.0565 16.0462 11.4682 16.0462 8.64276C16.0462 6.75469 15.2829 4.94381 13.9238 3.609C12.5647 2.27431 10.7213 1.52485 8.79975 1.52485ZM8.0285 4.83555C8.79541 4.68572 9.59044 4.76253 10.3128 5.05633C11.0353 5.35024 11.6526 5.8486 12.0869 6.48697C12.5211 7.12527 12.7531 7.87526 12.7532 8.64276C12.7532 9.67203 12.3366 10.6592 11.5953 11.3873C10.854 12.1153 9.84846 12.5245 8.79975 12.5245C8.01782 12.5245 7.25379 12.2966 6.60374 11.8701C5.95367 11.4434 5.44671 10.8375 5.14758 10.1284C4.84847 9.41913 4.7704 8.63809 4.92288 7.88524C5.07541 7.13259 5.45152 6.44106 6.0042 5.89823C6.55702 5.35529 7.2615 4.98541 8.0285 4.83555ZM9.27762 6.28484C8.80318 6.19215 8.31062 6.24038 7.86365 6.42221C7.41684 6.60407 7.03451 6.91209 6.76565 7.30729C6.49684 7.70252 6.35355 8.16729 6.35352 8.64276C6.35352 9.28054 6.61093 9.89252 7.06983 10.3432C7.52867 10.7939 8.15122 11.0467 8.79975 11.0468C9.28346 11.0468 9.75645 10.9056 10.1588 10.6415C10.5611 10.3775 10.8752 10.0025 11.0605 9.56316C11.2458 9.12383 11.2943 8.64017 11.1999 8.17372C11.1054 7.70735 10.8718 7.27934 10.5297 6.94325C10.1875 6.60723 9.75192 6.37757 9.27762 6.28484Z" fill="#58BD7D" stroke="#58BD7D" stroke-width="0.0928588"/>
</svg>