<svg width="22" height="19" viewBox="0 0 22 19" fill="none" xmlns="http://www.w3.org/2000/svg">
<path d="M4.55895 5.53332L5.07569 5.01658L4.55895 5.53332ZM2.67948 3.65384L2.16274 4.17057L2.67948 3.65384ZM10.4744 17.5385C10.0708 17.5385 9.7436 17.8657 9.7436 18.2693C9.7436 18.6729 10.0708 19 10.4744 19V17.5385ZM20.2619 16.261L19.6707 15.8315L20.2619 16.261ZM19.1841 17.3388L18.7546 16.7476L19.1841 17.3388ZM19.1841 1.66119L19.6137 1.06998V1.06998L19.1841 1.66119ZM20.2619 2.73899L19.6707 3.16852V3.16852L20.2619 2.73899ZM3.71335 1.66119L3.28381 1.06998L3.28381 1.06998L3.71335 1.66119ZM0.974345 9.50001C0.974345 9.9036 1.30152 10.2308 1.70512 10.2308C2.10871 10.2308 2.43589 9.9036 2.43589 9.50001H0.974345ZM2.63555 2.73899L2.04434 2.30945H2.04434L2.63555 2.73899ZM0.730755 15.5898C0.327161 15.5898 -1.65266e-05 15.9169 -1.65266e-05 16.3205C-1.65266e-05 16.7241 0.327161 17.0513 0.730755 17.0513V15.5898ZM6.57692 17.0513C6.98052 17.0513 7.30769 16.7241 7.30769 16.3205C7.30769 15.9169 6.98052 15.5898 6.57692 15.5898V17.0513ZM0.730755 12.6667C0.327161 12.6667 -1.65266e-05 12.9939 -1.65266e-05 13.3975C-1.65266e-05 13.801 0.327161 14.1282 0.730755 14.1282V12.6667ZM3.65384 14.1282C4.05743 14.1282 4.38461 13.801 4.38461 13.3975C4.38461 12.9939 4.05743 12.6667 3.65384 12.6667V14.1282ZM2.31022 3.28458L1.65189 2.96736L2.31022 3.28458ZM5.07569 5.01658L3.31442 3.25532L2.28096 4.28878L4.04222 6.05005L5.07569 5.01658ZM19.583 3.25532L17.8218 5.01658L18.8552 6.05005L20.6165 4.28878L19.583 3.25532ZM4.04222 6.05005C5.65155 7.65938 6.90943 8.91945 8.02178 9.76815C9.151 10.6297 10.2157 11.1359 11.4487 11.1359V9.67435C10.6638 9.67435 9.90754 9.36856 8.90833 8.60619C7.89225 7.83095 6.71423 6.65513 5.07569 5.01658L4.04222 6.05005ZM17.8218 5.01658C16.1832 6.65513 15.0052 7.83095 13.9891 8.60619C12.9899 9.36856 12.2337 9.67435 11.4487 9.67435V11.1359C12.6817 11.1359 13.7465 10.6297 14.8757 9.76815C15.988 8.91945 17.2459 7.65938 18.8552 6.05005L17.8218 5.01658ZM5.07569 5.01658L3.19621 3.13711L2.16274 4.17057L4.04222 6.05005L5.07569 5.01658ZM19.7013 3.13711L17.8218 5.01658L18.8552 6.05005L20.7347 4.17057L19.7013 3.13711ZM10.4744 1.46153H12.4231V-1.65266e-05H10.4744V1.46153ZM12.4231 17.5385H10.4744V19H12.4231V17.5385ZM20.4616 9.50001C20.4616 11.3431 20.4606 12.6667 20.3495 13.6917C20.24 14.703 20.0303 15.3365 19.6707 15.8315L20.8531 16.6906C21.4239 15.9049 21.6795 14.9847 21.8026 13.8491C21.9241 12.7271 21.9231 11.3105 21.9231 9.50001H20.4616ZM12.4231 19C14.2336 19 15.6502 19.001 16.7722 18.8795C17.9078 18.7564 18.828 18.5008 19.6137 17.93L18.7546 16.7476C18.2596 17.1072 17.6261 17.3169 16.6148 17.4264C15.5898 17.5375 14.2662 17.5385 12.4231 17.5385V19ZM19.6707 15.8315C19.4153 16.183 19.1061 16.4922 18.7546 16.7476L19.6137 17.93C20.0893 17.5845 20.5076 17.1662 20.8531 16.6906L19.6707 15.8315ZM12.4231 1.46153C14.2662 1.46153 15.5898 1.46253 16.6148 1.57358C17.6261 1.68315 18.2596 1.89277 18.7546 2.25239L19.6137 1.06998C18.828 0.499172 17.9078 0.24358 16.7722 0.120539C15.6502 -0.00101962 14.2336 -1.65266e-05 12.4231 -1.65266e-05V1.46153ZM18.7546 2.25239C19.1061 2.50781 19.4153 2.81697 19.6707 3.16852L20.8531 2.30945C20.5076 1.83382 20.0893 1.41554 19.6137 1.06998L18.7546 2.25239ZM10.4744 -1.65266e-05C8.66385 -1.65266e-05 7.24726 -0.00101962 6.12528 0.120539C4.98963 0.24358 4.06946 0.499172 3.28381 1.06998L4.14288 2.25239C4.63786 1.89277 5.27141 1.68315 6.28271 1.57358C7.30769 1.46253 8.63129 1.46153 10.4744 1.46153V-1.65266e-05ZM3.28381 1.06998C2.80818 1.41555 2.38991 1.83382 2.04434 2.30945L3.22675 3.16852C3.48217 2.81697 3.79133 2.50781 4.14288 2.25239L3.28381 1.06998ZM0.730755 17.0513H6.57692V15.5898H0.730755V17.0513ZM0.730755 14.1282H3.65384V12.6667H0.730755V14.1282ZM2.43589 9.50001C2.43589 7.90676 2.43636 6.69865 2.50945 5.73122C2.58241 4.76552 2.72418 4.10896 2.96855 3.60181L1.65189 2.96736C1.29116 3.71599 1.13038 4.58441 1.05206 5.62112C0.97387 6.65609 0.974345 7.92781 0.974345 9.50001H2.43589ZM2.96855 3.60181C3.04338 3.44652 3.12878 3.30337 3.22675 3.16852L2.04434 2.30945C1.8937 2.5168 1.76369 2.73535 1.65189 2.96736L2.96855 3.60181ZM3.19621 3.13711L2.82696 2.76785L1.79349 3.80132L2.16274 4.17057L3.19621 3.13711ZM21.9231 9.50001C21.9231 7.92781 21.9236 6.65609 21.8454 5.62112C21.7671 4.58441 21.6063 3.71599 21.2456 2.96736L19.9289 3.6018C20.1733 4.10896 20.3151 4.76552 20.388 5.73122C20.4611 6.69865 20.4616 7.90676 20.4616 9.50001H21.9231ZM21.2456 2.96736C21.1338 2.73535 21.0038 2.5168 20.8531 2.30945L19.6707 3.16852C19.7687 3.30337 19.8541 3.44652 19.9289 3.6018L21.2456 2.96736ZM20.7347 4.17057L21.104 3.80132L20.0705 2.76785L19.7013 3.13711L20.7347 4.17057Z" fill="#58BD7D"/>
</svg>
