<svg width="152" height="34" viewBox="0 0 152 34" fill="none" xmlns="http://www.w3.org/2000/svg">
<path d="M9.57 12.671C8.79 13.691 7.96 14.801 7.08 16.001C6.2 17.201 5.46 18.431 4.86 19.691H9.57V12.671ZM13.95 7.21098V19.691H16.17V23.351H13.95V28.001H9.57V23.351H0.6V20.081C1.04 19.201 1.59 18.211 2.25 17.111C2.91 15.991 3.64 14.851 4.44 13.691C5.26 12.511 6.12 11.361 7.02 10.241C7.92 9.12098 8.82 8.11098 9.72 7.21098H13.95ZM23.5308 25.631C23.5308 26.531 23.2408 27.221 22.6608 27.701C22.1008 28.161 21.4608 28.391 20.7408 28.391C20.0208 28.391 19.3708 28.161 18.7908 27.701C18.2308 27.221 17.9508 26.531 17.9508 25.631C17.9508 24.731 18.2308 24.051 18.7908 23.591C19.3708 23.111 20.0208 22.871 20.7408 22.871C21.4608 22.871 22.1008 23.111 22.6608 23.591C23.2408 24.051 23.5308 24.731 23.5308 25.631ZM33.1036 16.841C33.5636 16.841 34.0436 16.801 34.5436 16.721C35.0436 16.621 35.4136 16.491 35.6536 16.331V16.061C35.6536 15.981 35.6536 15.901 35.6536 15.821C35.6736 15.741 35.6836 15.671 35.6836 15.611C35.6636 14.891 35.6036 14.221 35.5036 13.601C35.4036 12.961 35.2336 12.411 34.9936 11.951C34.7536 11.471 34.4236 11.101 34.0036 10.841C33.6036 10.561 33.1036 10.421 32.5036 10.421C32.0236 10.421 31.6036 10.521 31.2436 10.721C30.8836 10.921 30.5936 11.181 30.3736 11.501C30.1536 11.821 29.9836 12.171 29.8636 12.551C29.7636 12.931 29.7136 13.301 29.7136 13.661C29.7136 14.741 29.9736 15.541 30.4936 16.061C31.0336 16.581 31.9036 16.841 33.1036 16.841ZM35.2936 19.751C34.8736 19.951 34.4036 20.101 33.8836 20.201C33.3836 20.281 32.9536 20.321 32.5936 20.321C31.2936 20.321 30.1836 20.171 29.2636 19.871C28.3436 19.551 27.5836 19.111 26.9836 18.551C26.4036 17.971 25.9736 17.281 25.6936 16.481C25.4136 15.681 25.2736 14.801 25.2736 13.841C25.2736 13.041 25.4036 12.221 25.6636 11.381C25.9436 10.541 26.3736 9.78098 26.9536 9.10097C27.5336 8.40098 28.2636 7.83098 29.1436 7.39098C30.0436 6.93098 31.1236 6.70098 32.3836 6.70098C34.9636 6.70098 36.9036 7.50098 38.2036 9.10097C39.5236 10.681 40.1836 12.961 40.1836 15.941C40.1836 17.901 39.9236 19.631 39.4036 21.131C38.9036 22.631 38.1136 23.891 37.0336 24.911C35.9736 25.931 34.6136 26.711 32.9536 27.251C31.2936 27.771 29.3236 28.041 27.0436 28.061C27.0236 27.421 26.9936 26.801 26.9536 26.201C26.9136 25.601 26.8736 24.981 26.8336 24.341C27.9736 24.321 29.0036 24.241 29.9236 24.101C30.8436 23.941 31.6536 23.691 32.3536 23.351C33.0536 22.991 33.6436 22.521 34.1236 21.941C34.6236 21.361 35.0136 20.631 35.2936 19.751Z" fill="black"/>
<path d="M67.9457 22.5477C67.773 22.7151 67.6937 22.9571 67.733 23.1944L68.3257 26.4744C68.3757 26.7524 68.2583 27.0337 68.0257 27.1944C67.7977 27.3611 67.4943 27.3811 67.2457 27.2477L64.293 25.7077C64.1903 25.6531 64.0763 25.6237 63.9597 25.6204H63.779C63.7163 25.6297 63.655 25.6497 63.599 25.6804L60.6457 27.2277C60.4997 27.3011 60.3343 27.3271 60.1723 27.3011C59.7777 27.2264 59.5143 26.8504 59.579 26.4537L60.1723 23.1737C60.2117 22.9344 60.1323 22.6911 59.9597 22.5211L57.5523 20.1877C57.351 19.9924 57.281 19.6991 57.373 19.4344C57.4623 19.1704 57.6903 18.9777 57.9657 18.9344L61.279 18.4537C61.531 18.4277 61.7523 18.2744 61.8657 18.0477L63.3257 15.0544C63.3603 14.9877 63.405 14.9264 63.459 14.8744L63.519 14.8277C63.5503 14.7931 63.5863 14.7644 63.6263 14.7411L63.699 14.7144L63.8123 14.6677H64.093C64.3437 14.6937 64.5643 14.8437 64.6797 15.0677L66.159 18.0477C66.2657 18.2657 66.473 18.4171 66.7123 18.4537L70.0257 18.9344C70.3057 18.9744 70.5397 19.1677 70.6323 19.4344C70.7197 19.7017 70.6443 19.9951 70.439 20.1877L67.9457 22.5477Z" fill="#FF876C"/>
<path d="M87.9457 22.5477C87.773 22.7151 87.6937 22.9571 87.733 23.1944L88.3257 26.4744C88.3757 26.7524 88.2583 27.0337 88.0257 27.1944C87.7977 27.3611 87.4943 27.3811 87.2457 27.2477L84.293 25.7077C84.1903 25.6531 84.0763 25.6237 83.9597 25.6204H83.779C83.7163 25.6297 83.655 25.6497 83.599 25.6804L80.6457 27.2277C80.4997 27.3011 80.3343 27.3271 80.1723 27.3011C79.7777 27.2264 79.5143 26.8504 79.579 26.4537L80.1723 23.1737C80.2117 22.9344 80.1323 22.6911 79.9597 22.5211L77.5523 20.1877C77.351 19.9924 77.281 19.6991 77.373 19.4344C77.4623 19.1704 77.6903 18.9777 77.9657 18.9344L81.279 18.4537C81.531 18.4277 81.7523 18.2744 81.8657 18.0477L83.3257 15.0544C83.3603 14.9877 83.405 14.9264 83.459 14.8744L83.519 14.8277C83.5503 14.7931 83.5863 14.7644 83.6263 14.7411L83.699 14.7144L83.8123 14.6677H84.093C84.3437 14.6937 84.5643 14.8437 84.6797 15.0677L86.159 18.0477C86.2657 18.2657 86.473 18.4171 86.7123 18.4537L90.0257 18.9344C90.3057 18.9744 90.5397 19.1677 90.6323 19.4344C90.7197 19.7017 90.6443 19.9951 90.439 20.1877L87.9457 22.5477Z" fill="#FF876C"/>
<path d="M107.946 22.5477C107.773 22.7151 107.694 22.9571 107.733 23.1944L108.326 26.4744C108.376 26.7524 108.258 27.0337 108.026 27.1944C107.798 27.3611 107.494 27.3811 107.246 27.2477L104.293 25.7077C104.19 25.6531 104.076 25.6237 103.96 25.6204H103.779C103.716 25.6297 103.655 25.6497 103.599 25.6804L100.646 27.2277C100.5 27.3011 100.334 27.3271 100.172 27.3011C99.7777 27.2264 99.5143 26.8504 99.579 26.4537L100.172 23.1737C100.212 22.9344 100.132 22.6911 99.9597 22.5211L97.5523 20.1877C97.351 19.9924 97.281 19.6991 97.373 19.4344C97.4623 19.1704 97.6903 18.9777 97.9657 18.9344L101.279 18.4537C101.531 18.4277 101.752 18.2744 101.866 18.0477L103.326 15.0544C103.36 14.9877 103.405 14.9264 103.459 14.8744L103.519 14.8277C103.55 14.7931 103.586 14.7644 103.626 14.7411L103.699 14.7144L103.812 14.6677H104.093C104.344 14.6937 104.564 14.8437 104.68 15.0677L106.159 18.0477C106.266 18.2657 106.473 18.4171 106.712 18.4537L110.026 18.9344C110.306 18.9744 110.54 19.1677 110.632 19.4344C110.72 19.7017 110.644 19.9951 110.439 20.1877L107.946 22.5477Z" fill="#FF876C"/>
<path d="M127.946 22.5477C127.773 22.7151 127.694 22.9571 127.733 23.1944L128.326 26.4744C128.376 26.7524 128.258 27.0337 128.026 27.1944C127.798 27.3611 127.494 27.3811 127.246 27.2477L124.293 25.7077C124.19 25.6531 124.076 25.6237 123.96 25.6204H123.779C123.716 25.6297 123.655 25.6497 123.599 25.6804L120.646 27.2277C120.5 27.3011 120.334 27.3271 120.172 27.3011C119.778 27.2264 119.514 26.8504 119.579 26.4537L120.172 23.1737C120.212 22.9344 120.132 22.6911 119.96 22.5211L117.552 20.1877C117.351 19.9924 117.281 19.6991 117.373 19.4344C117.462 19.1704 117.69 18.9777 117.966 18.9344L121.279 18.4537C121.531 18.4277 121.752 18.2744 121.866 18.0477L123.326 15.0544C123.36 14.9877 123.405 14.9264 123.459 14.8744L123.519 14.8277C123.55 14.7931 123.586 14.7644 123.626 14.7411L123.699 14.7144L123.812 14.6677H124.093C124.344 14.6937 124.564 14.8437 124.68 15.0677L126.159 18.0477C126.266 18.2657 126.473 18.4171 126.712 18.4537L130.026 18.9344C130.306 18.9744 130.54 19.1677 130.632 19.4344C130.72 19.7017 130.644 19.9951 130.439 20.1877L127.946 22.5477Z" fill="#FF876C"/>
<path d="M147.946 22.5477C147.773 22.7151 147.694 22.9571 147.733 23.1944L148.326 26.4744C148.376 26.7524 148.258 27.0337 148.026 27.1944C147.798 27.3611 147.494 27.3811 147.246 27.2477L144.293 25.7077C144.19 25.6531 144.076 25.6237 143.96 25.6204H143.779C143.716 25.6297 143.655 25.6497 143.599 25.6804L140.646 27.2277C140.5 27.3011 140.334 27.3271 140.172 27.3011C139.778 27.2264 139.514 26.8504 139.579 26.4537L140.172 23.1737C140.212 22.9344 140.132 22.6911 139.96 22.5211L137.552 20.1877C137.351 19.9924 137.281 19.6991 137.373 19.4344C137.462 19.1704 137.69 18.9777 137.966 18.9344L141.279 18.4537C141.531 18.4277 141.752 18.2744 141.866 18.0477L143.326 15.0544C143.36 14.9877 143.405 14.9264 143.459 14.8744L143.519 14.8277C143.55 14.7931 143.586 14.7644 143.626 14.7411L143.699 14.7144L143.812 14.6677H144.093C144.344 14.6937 144.564 14.8437 144.68 15.0677L146.159 18.0477C146.266 18.2657 146.473 18.4171 146.712 18.4537L150.026 18.9344C150.306 18.9744 150.54 19.1677 150.632 19.4344C150.72 19.7017 150.644 19.9951 150.439 20.1877L147.946 22.5477Z" fill="#FF876C"/>
</svg>
