<svg width="100" height="17" viewBox="0 0 100 17" fill="none" xmlns="http://www.w3.org/2000/svg">
<path d="M8.30283 0.568573L10.0835 6.04906H15.8461L11.1841 9.43618L12.9648 14.9167L8.30283 11.5295L3.64085 14.9167L5.42157 9.43618L0.759591 6.04906H6.52211L8.30283 0.568573Z" fill="#FFD900"/>
<path d="M29.1657 0.568573L30.9464 6.04906H36.7089L32.0469 9.43618L33.8277 14.9167L29.1657 11.5295L24.5037 14.9167L26.2844 9.43618L21.6224 6.04906H27.385L29.1657 0.568573Z" fill="#FFD900"/>
<path d="M50.0285 0.568573L51.8093 6.04906H57.5718L52.9098 9.43618L54.6905 14.9167L50.0285 11.5295L45.3666 14.9167L47.1473 9.43618L42.4853 6.04906H48.2478L50.0285 0.568573Z" fill="#FFD900"/>
<path d="M70.8914 0.568573L72.6721 6.04906H78.4346L73.7726 9.43618L75.5534 14.9167L70.8914 11.5295L66.2294 14.9167L68.0101 9.43618L63.3482 6.04906H69.1107L70.8914 0.568573Z" fill="#FFD900"/>
<path d="M91.7542 0.568573L93.535 6.04906H99.2975L94.6355 9.43618L96.4162 14.9167L91.7542 11.5295L87.0923 14.9167L88.873 9.43618L84.211 6.04906H89.9735L91.7542 0.568573Z" fill="#FFD900"/>
</svg>
